<mxfile host="app.diagrams.net" modified="2024-04-18T03:06:30.157Z" agent="Mozilla/5.0 (Windows NT 10.0; Win64; x64) AppleWebKit/537.36 (KHTML, like Gecko) Chrome/114.0.5735.289 Safari/537.36" version="24.2.5" etag="jFz96dT61-tyUfILQSIn" type="github">
  <diagram name="第 1 页" id="eyEL0RzDnNPFyc79jvju">
    <mxGraphModel>
      <root>
        <mxCell id="0" />
        <mxCell id="1" parent="0" />
      </root>
    </mxGraphModel>
  </diagram>
</mxfile>
